# xmcd
#
# Track frame offsets:
#	150
#	12692
#	31232
#	46117
#	55860
#	70457
#	82485
#	98905
#	113827
#	127567
#	141610
#	151240
#	170932
#	189682
#	203970
#
# Disc length: 2932 seconds
#
# Revision: 9
# Processed by: cddbd v1.5.2PL0 Copyright (c) Steve Scherf et al.
# Submitted via: EasyCDDAExtractor 2010.6.0.0
#
DISCID=dd0b720f
DTITLE=Various Artist - CLASSIC COUNTRY 1980 BIS 1984 [DISC 01]
DYEAR=2000
DGENRE=COUNTRY
TTITLE0=DOLLY PARTON - 9 TO 5
TTITLE1=DON WILLIAMS - I BELIEVE IN YOU
TTITLE2=GEORGE JONES - HE STOPPED LOVING HER TODAY
TTITLE3=WAYLON JENNINGS - THEME FROM THE DUKES OF HAZZARD (GOOD OL' BOYS)
TTITLE4=RONNIE MILSAP - THERE'S NO GETTIN' OVER ME
TTITLE5=OAK RIDGE BOYS - ELVIRA
TTITLE6=ALABAMA - WHEN WE MAKE LOVE
TTITLE7=ROSANNE CASH - SEVEN YEAR ACHE
TTITLE8=MERLE HAGGARD - THAT'S THE WAY LOVE GOES
TTITLE9=MICKEY GILLEY - YOU DON'T KNOW ME
TTITLE10=CHARLEY PRIDE - WHY BABY WHY
TTITLE11=MAC DAVIS - IT'S HARD TO BE HUMBLE
TTITLE12=JUICE NEWTON - ANGEL OF THE MORNING
TTITLE13=EDDIE RABBITT - I LOVE A RAINY NIGHT
TTITLE14=WILLIE NELSON - ALWAYS ON MY MIND
EXTD=YEAR: 2000
EXTT0=
EXTT1=
EXTT2=
EXTT3=
EXTT4=
EXTT5=
EXTT6=
EXTT7=
EXTT8=
EXTT9=
EXTT10=
EXTT11=
EXTT12=
EXTT13=
EXTT14=
PLAYORDER=
